<?xml version="1.0" encoding="UTF-8" standalone="no"?>
<svg
   xmlns:svg="http://www.w3.org/2000/svg"
   xmlns="http://www.w3.org/2000/svg"
   xmlns:xlink="http://www.w3.org/1999/xlink"
   style="background:#000"
   width="100%"
   height="100%"
   viewBox="0 0 64 64"
   preserveAspectRatio="xMidYMid meet"
   version="1.1">
  <g
    
     style="display:inline">
    <path
       style="fill:#222;fill-opacity:1;stroke:#000000;stroke-width:0.20045748;stroke-linecap:round;stroke-linejoin:round;stroke-miterlimit:4;stroke-opacity:1;stroke-dasharray:none"
      
       d="m 61.81818,31.863636 a 29.90909,29.863636 0 1 1 -59.81818,0 29.90909,29.863636 0 1 1 59.81818,0 z"
       transform="matrix(1.0597035,0,0,1.0643596,-1.7076685,-1.8014012)" />
  </g>
  <g
    
     style="display:inline" />
  <g
    
     style="display:inline">
    <path
       style="fill:#000;fill-opacity:1;stroke:none"
       d="m 45.752192,9.9549348 c 1.451668,1.5481592 1.258114,4.1606782 -0.290333,6.0958772 -2.013307,2.516168 -5.032452,2.70928 -7.161565,1.64492 -2.830155,-1.414815 -1.742003,-4.934757 0.483889,-6.966717 2.225892,-2.0319599 4.838896,-2.4189999 6.968009,-0.7740802 z"
       />
  </g>
  <g
    
     style="opacity:0.8;display:inline">
    <path
       style="fill:#333;fill-opacity:1;stroke:none"
      
       d="m 44.000001,13.045455 a 1.5909091,1.1363636 0 1 1 -3.181818,0 1.5909091,1.1363636 0 1 1 3.181818,0 z"
       transform="matrix(1.0003565,-0.36403245,0.36409998,1.0001709,-4.8574809,14.329116)" />
  </g>
  <g
    
     style="display:inline">
    <path
       style="fill:#111;fill-opacity:1;stroke:none;display:inline"
       d="m 61.379215,15.219054 c -7.742233,3.24146 -8.322901,5.612079 -9.77457,8.901917 -5.806675,-2.128719 -11.903685,-1.06436 -13.839242,-0.677319 -1.45167,3.967157 -8.419679,12.191754 -9.77457,12.869075 -1.354892,0.67732 -5.441372,0.837938 -6.193787,-0.77408 -0.677445,-1.4514 8.359147,-5.036649 12.677907,-12.191755 -1.83878,-1.54816 -15.001273,3.196511 -19.839473,11.514434 -2.296923,-14.04044 17.04094,-14.380209 23.129923,-14.707513 9.000346,-0.4838 16.936136,-7.111857 23.613812,-4.934759 z"
       />
  </g>
  <g
    
     style="display:inline">
    <path
       style="fill:none;stroke:#000;stroke-width:0.74512082;stroke-miterlimit:4;stroke-opacity:1;stroke-dasharray:none;display:inline"
       d="m 61.572844,14.961648 c -7.742233,3.241459 -8.322901,5.612079 -9.774569,8.901917 C 45.9916,21.734845 39.89459,22.799205 37.959032,23.186245 36.507363,27.153402 29.539353,35.378 28.184463,36.05532 26.829571,36.73264 22.743091,36.893258 21.990676,35.28124 M 34.668583,23.089486 c -1.838781,-1.54816 -15.001274,3.19651 -19.839474,11.514434"
       />
    <path
      
       d="M 14.829109,34.60392 C 12.532187,20.563479 31.87005,20.22371 37.959032,19.896407 46.959378,19.412606 54.895168,12.784549 61.572844,14.961648 M 21.990676,35.28124 c -0.677445,-1.451399 8.359147,-5.036649 12.677907,-12.191754"
       style="fill:none;stroke:#333;stroke-width:0.74512082;stroke-linecap:round;stroke-miterlimit:4;stroke-opacity:1;stroke-dasharray:none;display:inline" />
  </g>
  <g
    
     style="display:inline">
    <path
       style="fill:#111;fill-opacity:1;stroke:none"
       d="m 35.907236,30.542451 c -7.141714,8.661583 -22.404503,19.39638 -32.3000566,22.920575 3.0381555,1.19793 7.7136286,3.485139 12.7284126,0 5.014783,-3.485138 13.916715,-13.967209 17.929268,-17.925942 4.970607,-0.400911 9.518501,-0.158243 9.375228,3.215723 -0.143272,3.373965 -3.881114,4.079132 -11.701927,2.463107 -0.840716,5.704874 -4.222749,3.663035 -5.748315,7.799837 7.439067,-3.731456 9.273879,-2.429323 11.907224,-2.942045 2.633345,-0.512721 9.605237,-1.619171 9.443661,-8.073516 -0.161577,-6.454345 -8.430379,-4.831413 -11.428199,-5.268311 -0.192094,-0.642155 -0.205296,-2.189428 -0.205296,-2.189428 z"
       />
  </g>
  <g
    
     style="display:inline">
    <path
       style="fill:none;stroke:#000;stroke-width:0.85156673;stroke-linecap:round;stroke-miterlimit:4;stroke-opacity:1;stroke-dasharray:none;display:inline"
       d="m 26.189846,49.015751 c 7.439067,-3.731456 9.273879,-2.429323 11.907224,-2.942045 2.633345,-0.512721 9.605237,-1.619171 9.443661,-8.073516 M 36.112532,32.731879 C 35.920438,32.089724 35.907236,30.542451 35.907236,30.542451 M 3.6071794,53.463026 c 3.0381555,1.19793 7.7136286,3.485139 12.7284126,0 5.014783,-3.485138 13.916715,-13.967209 17.929268,-17.925942 4.970607,-0.400911 9.518501,-0.158243 9.375228,3.215723"
       />
    <path
      
       d="M 35.907236,30.542451 C 28.765522,39.204034 13.502733,49.938831 3.6071794,53.463026 M 43.640088,38.752807 c -0.143272,3.373965 -3.881114,4.079132 -11.701927,2.463107 -0.840716,5.704874 -4.222749,3.663035 -5.748315,7.799837 M 47.540731,38.00019 C 47.379154,31.545845 39.110352,33.168777 36.112532,32.731879"
       style="fill:none;stroke:#333;stroke-width:0.85156673;stroke-linecap:round;stroke-miterlimit:4;stroke-opacity:1;stroke-dasharray:none;display:inline" />
  </g>
  <g style="display:inline" transform="rotate(-8) translate(-6,6.5)">
    <text
       xml:space="preserve"
       style="font-size:7.1px;font-style:normal;font-weight:bold;line-height:0%;letter-spacing:0px;word-spacing:0px;fill:#111;fill-opacity:1;stroke:none;font-family:sans-serif"
       x="59.86"
       y="64.40"
      
       transform="matrix(1.1881344,0,-0.7920085,0.84165562,0,0)">
      <tspan x="55" y="61" style="stroke-width:0.11">ASSION</tspan>
    </text>
    <text xml:space="preserve"
       style="font-size:7.1px;font-style:normal;font-weight:bold;line-height:0%;letter-spacing:0px;word-spacing:0px;fill:#111;fill-opacity:1;stroke:none;font-family:sans-serif"
       x="55.9" y="35.7"
       transform="matrix(1.1881344,0,-0.7920085,0.84165562,0,0)">
      <tspan x="55.9" y="35.7" style="stroke-width:0.11">RAIL</tspan>
    </text>
  </g>
  <g>
    <text
       xml:space="preserve"
       style="display:inline;opacity:0.8;font-size:4px;font-style:normal;font-weight:normal;line-height:125%;letter-spacing:0px;word-spacing:0px;fill:#000;fill-opacity:1;stroke:none;font-family:sans-serif;-inkscape-font-specification:Sans;font-stretch:normal;font-variant:normal;text-anchor:start;text-align:start;writing-mode:lr">
      <textPath xlink:href="#path3842">
        <tspan style="font-family:sans-serif;font-weight:normal;font-style:normal;font-stretch:normal;font-variant:normal;font-size:5px;text-anchor:start;text-align:start;writing-mode:lr;line-height:125%;stroke:none">www.trail-passion.net</tspan>
      </textPath>
    </text>
    <path
       style="fill:none;stroke:none"
       d="m 10.454545,47.272727 c -7.91,-11 -5.221153,-22.265974 0.272729,-30.636363 C 16.221155,8.2659745 23.818183,4.7272727 34,4.9"/>
  </g>
</svg>
